<svg enable-background="new 0 0 13.68 13.68" viewBox="0 0 13.68 13.68" xmlns="http://www.w3.org/2000/svg"><path d="m13.268 1.662c-.247-.128-.548-.106-.775.06l-4.787 3.475v-1.251-1.617c0-.283-.159-.538-.411-.667-.248-.128-.549-.106-.776.06l-6.213 4.511c-.191.141-.306.365-.306.605s.114.465.306.604l6.213 4.512c.128.094.283.145.439.145.114 0 .23-.03.337-.083.252-.129.411-.388.411-.665v-1.619-1.254l4.787 3.477c.129.094.283.145.439.145.113 0 .229-.03.336-.083.253-.129.412-.388.412-.665v-1.619-5.786-1.618c0-.282-.159-.538-.412-.667z" fill="#030104"/></svg>