<svg enable-background="new 0 0 18.909 18.909" viewBox="0 0 18.909 18.909" xmlns="http://www.w3.org/2000/svg"><g fill="#030104"><path d="m10.193 8.311-8.306-6.597c-.403-.203-.884-.181-1.268.052-.386.232-.619.646-.619 1.09v13.198c0 .443.233.856.619 1.089.208.126.444.19.683.19.201 0 .401-.046.586-.138l8.306-6.599c.4-.376.716-.658.716-1.143s-.269-.746-.717-1.142z"/><path d="m18.193 8.311-8.306-6.597c-.403-.203-.885-.181-1.269.052-.386.232-.619.646-.619 1.09v13.198c0 .443.233.856.619 1.089.208.126.444.19.683.19.201 0 .401-.046.586-.138l8.306-6.599c.4-.376.716-.658.716-1.143s-.268-.746-.716-1.142z"/></g></svg>