<svg height="297mm" viewBox="0 0 210 297" width="210mm" xmlns="http://www.w3.org/2000/svg"><path d="m175.3288 225.04094-101.334531 20.50024-68.4209967-77.50816 32.9135367-98.008404 101.334531-20.500242 68.421 77.508156z" fill="#333" fill-rule="evenodd" stroke-width=".264583" transform="matrix(.94909334 -.31499498 .31499498 .94909334 -43.219113 42.039767)"/><g fill="#fff" transform="matrix(.1953125 0 0 .1953125 55 90)"><circle cx="256" cy="436" r="10"/><path d="m420.008 133.838-160-70c-2.555-1.118-5.461-1.118-8.016 0-98.115 42.925-159.828 69.925-159.93 69.969-.099.087-6.062 2.425-6.062 9.193v61.72c-11.639 4.128-20 15.243-20 28.28v40c0 5.523 4.478 10 10 10h40c5.522 0 10-4.477 10-10v-40c0-13.036-8.361-24.152-20-28.28v-46.43l60 26.25v68.46c0 3.954 2.33 7.537 5.944 9.141 1.919.851 47.428 20.859 84.056 20.859s82.137-20.008 84.056-20.859c3.614-1.604 5.944-5.187 5.944-9.141v-68.46l74.008-32.378c3.641-1.592 5.992-5.188 5.992-9.162s-2.352-7.569-5.992-9.162zm-314.008 129.162h-20v-30c0-5.514 4.486-10 10-10s10 4.486 10 10zm220-16.678c-12.983 5.17-44.724 16.678-70 16.678-25.219 0-57.005-11.514-70-16.682v-53.028l65.992 28.872c2.553 1.117 5.461 1.118 8.016 0l65.992-28.872zm-70-44.237c-19.126-8.368-115.908-50.71-135.051-59.085l135.051-59.085 135.051 59.085c-17.581 7.691-124.809 54.604-135.051 59.085z"/><path d="m462 203h-86c-5.522 0-10 4.477-10 10s4.478 10 10 10h86c5.522 0 10-4.477 10-10s-4.478-10-10-10z"/><path d="m462 243h-86c-5.522 0-10 4.477-10 10s4.478 10 10 10h86c5.522 0 10-4.477 10-10s-4.478-10-10-10z"/><circle cx="256" cy="10" r="10"/><path d="m502 0h-201c-5.522 0-10 4.477-10 10s4.478 10 10 10h191v306h-472v-306h191c5.522 0 10-4.477 10-10s-4.478-10-10-10h-201c-5.522 0-10 4.477-10 10v386c0 5.523 4.478 10 10 10h193.937l-16.226 86h-31.711c-5.522 0-10 4.477-10 10s4.478 10 10 10h200c5.522 0 10-4.477 10-10s-4.478-10-10-10h-31.711l-16.226-86h193.937c5.522 0 10-4.477 10-10v-386c0-5.523-4.478-10-10-10zm-293.937 492 16.226-86h63.421l16.226 86zm283.937-106c-10.569 0-470.882 0-472 0v-40h472z"/></g><text font-family="sans-serif" font-size="10.5833" stroke-width=".264583" x="84.385056" y="207.13649"><tspan fill="#fff" font-family="CAMBRIA" stroke-width=".264583" x="84.385056" y="207.13649">O T H E R</tspan></text></svg>