<svg height="297mm" viewBox="0 0 210 297" width="210mm" xmlns="http://www.w3.org/2000/svg"><path d="m175.3288 225.04094-101.334531 20.50024-68.4209967-77.50816 32.9135367-98.008404 101.334531-20.500242 68.421 77.508156z" fill="#333" fill-rule="evenodd" stroke-width=".264583" transform="matrix(.94909334 -.31499498 .31499498 .94909334 -43.219113 42.039767)"/><g fill="#fff" transform="matrix(.1953125 0 0 .1953125 55 89.999805)"><path d="m407.07 377.01c-1.86-1.86-4.44-2.93-7.07-2.93s-5.21 1.07-7.07 2.93-2.93 4.44-2.93 7.07 1.07 5.21 2.93 7.07c1.86 1.87 4.44 2.93 7.07 2.93s5.21-1.06 7.07-2.93c1.86-1.86 2.93-4.44 2.93-7.07s-1.07-5.209-2.93-7.07z"/><path d="m472 .001h-432c-22.056 0-40 17.944-40 40v314.083c0 22.056 17.944 40 40 40h157v50.197c-29.332 2.858-52.333 27.65-52.333 57.719 0 5.523 4.477 10 10 10h202.667c5.523 0 10-4.477 10-10 0-30.749-24.055-55.972-54.333-57.872v-50.044h46.667c5.523 0 10-4.477 10-10s-4.477-10-10-10h-319.668c-11.028 0-20-8.972-20-20v-314.083c0-11.028 8.972-20 20-20h432c11.028 0 20 8.972 20 20v314.083c0 11.028-8.972 20-20 20h-37.333c-5.523 0-10 4.477-10 10s4.477 10 10 10h37.333c22.056 0 40-17.944 40-40v-314.083c0-22.057-17.944-40-40-40zm-255 394.083h76v49.917h-76zm92.333 69.917c17.494 0 32.265 11.882 36.666 28h-179.998c4.4-16.118 19.171-28 36.665-28z"/><path d="m262.07 345.011c-1.86-1.86-4.44-2.93-7.07-2.93s-5.21 1.07-7.07 2.93-2.93 4.44-2.93 7.07c0 2.64 1.07 5.21 2.93 7.07 1.86 1.87 4.44 2.93 7.07 2.93s5.21-1.06 7.07-2.93c1.86-1.86 2.93-4.43 2.93-7.07 0-2.63-1.07-5.21-2.93-7.07z"/><path d="m146.196 183.314 48.996-48.995c3.906-3.905 3.906-10.237.001-14.142s-10.237-3.905-14.143 0l-56.066 56.066c-3.905 3.905-3.905 10.237 0 14.143l56.066 56.066c1.953 1.953 4.512 2.929 7.071 2.929s5.119-.976 7.071-2.929c3.905-3.905 3.905-10.237 0-14.143z"/><path d="m387.015 176.243-56.066-56.066c-3.905-3.905-10.237-3.905-14.143 0-3.905 3.905-3.905 10.237 0 14.143l48.996 48.995-48.996 48.995c-3.904 3.905-3.904 10.237.001 14.142 1.953 1.953 4.512 2.929 7.071 2.929s5.119-.976 7.071-2.929l56.066-56.066c3.905-3.906 3.905-10.237 0-14.143z"/><path d="m273.557 121.53c-5.334-1.432-10.818 1.737-12.248 7.071l-29.938 111.731c-1.429 5.335 1.737 10.818 7.071 12.248.867.232 1.738.343 2.595.343 4.415 0 8.456-2.947 9.653-7.414l29.938-111.731c1.43-5.336-1.736-10.818-7.071-12.248z"/><path d="m462 40.084h-159c-5.523 0-10 4.477-10 10s4.477 10 10 10h149v250h-392v-250h153.5c5.523 0 10-4.477 10-10s-4.477-10-10-10h-163.5c-5.523 0-10 4.477-10 10v270c0 5.523 4.477 10 10 10h412c5.523 0 10-4.477 10-10v-270c0-5.523-4.477-10-10-10z"/><path d="m265.07 43.011c-1.86-1.86-4.44-2.93-7.07-2.93s-5.21 1.07-7.07 2.93-2.93 4.44-2.93 7.07 1.07 5.21 2.93 7.08c1.86 1.86 4.44 2.92 7.07 2.92s5.21-1.06 7.07-2.92c1.86-1.87 2.93-4.44 2.93-7.08 0-2.63-1.07-5.21-2.93-7.07z"/></g><text font-family="sans-serif" font-size="10.5833" stroke-width=".264583" x="54.374718" y="203.13649"><tspan fill="#fff" font-family="Cambria" stroke-width=".264583" x="54.374718" y="203.13649">P R O G R A M M I N G</tspan></text></svg>