<svg height="297mm" viewBox="0 0 210 297" width="210mm" xmlns="http://www.w3.org/2000/svg"><path d="m175.3288 225.04094-101.334531 20.50024-68.4209967-77.50816 32.9135367-98.008404 101.334531-20.500242 68.421 77.508156z" fill="#333" fill-rule="evenodd" stroke-width=".264583" transform="matrix(.94909334 -.31499498 .31499498 .94909334 -43.219113 42.039767)"/><text font-family="sans-serif" font-size="10.5833" stroke-width=".264583" x="81.886314" y="195.13649"><tspan fill="#fff" font-family="Cambria" stroke-width=".264583" x="81.886314" y="195.13649">V I D E O S</tspan></text><g fill="#fff" transform="matrix(.26458211 0 0 .26458333 68.000016 94.231554)"><path d="m330.804 171.002c-3.6-6.4-12-8.8-18.8-4.8l-45.6 26.4-11.6 6.8v63.2l10.8 6.4c.4 0 .4.4.8.4l44.8 26c2 1.6 4.8 2.4 7.6 2.4 7.6 0 13.6-6 13.6-13.6v-53.6l.4-52.8c0-2.4-.4-4.8-2-6.8z"/><path d="m64.404 150.602c35.6 0 64.4-28.8 64.4-64.4s-28.8-64.4-64.4-64.4-64.4 28.8-64.4 64.4c-.4 35.6 28.8 64.4 64.4 64.4zm0-90.8c14.8 0 26.4 12 26.4 26.4 0 14.8-12 26.4-26.4 26.4s-26.4-12-26.4-26.4c-.4-14.8 11.6-26.4 26.4-26.4z"/><path d="m227.604 154.202c-10.4 5.2-22 8.4-34.4 8.4-15.2 0-29.6-4.4-41.6-12.4h-45.6c-12 8-26.4 12.4-41.6 12.4-12.4 0-24-2.8-34.4-8.4-9.2 5.2-15.6 15.6-15.6 26.8v97.6c0 18 14.8 32.4 32.4 32.4h164.4c18 0 32.4-14.8 32.4-32.4v-97.6c-.4-11.2-6.8-21.6-16-26.8z"/><path d="m193.204 150.602c35.6 0 64.4-28.8 64.4-64.4s-28.8-64.4-64.4-64.4-64.4 28.8-64.4 64.4 28.8 64.4 64.4 64.4zm0-90.8c14.8 0 26.4 12 26.4 26.4 0 14.8-12 26.4-26.4 26.4s-26.4-12-26.4-26.4c0-14.8 11.6-26.4 26.4-26.4z"/></g></svg>