<svg height="297mm" viewBox="0 0 210 297" width="210mm" xmlns="http://www.w3.org/2000/svg"><path d="m175.3288 225.04094-101.334531 20.50024-68.4209967-77.50816 32.9135367-98.008404 101.334531-20.500242 68.421 77.508156z" fill="#333" fill-rule="evenodd" stroke-width=".264583" transform="matrix(.94909334 -.31499498 .31499498 .94909334 -43.219113 42.039767)"/><g fill="#fff" transform="matrix(.19531794 0 0 .19531794 63.998633 92)"><path d="m503.22 186.828-25.041-25.041c-11.697-11.698-30.729-11.696-42.427 0l-52.745 52.745v-169.532c0-24.813-20.187-45-45-45h-293c-24.813 0-45 20.187-45 45v422c0 24.813 20.187 45 45 45h293c24.813 0 45-20.187 45-45v-119.033l120.213-118.712c11.697-11.697 11.697-30.73 0-42.427zm-179.399 177.423-45.122 21.058 21.037-45.078 111.975-111.975 24.757 24.756zm29.186 102.749c0 8.271-6.729 15-15 15h-293c-8.271 0-15-6.729-15-15v-422c0-8.271 6.729-15 15-15h293c8.271 0 15 6.729 15 15v199.532c-83.179 83.179-77.747 77.203-79.34 80.616l-39.598 84.854c-2.667 5.717-1.474 12.49 2.986 16.95 4.46 4.461 11.236 5.653 16.95 2.986l84.854-39.599c3.111-1.452 3.623-2.354 14.148-12.748zm104.806-235.067-24.89-24.89 24.043-24.043 25.033 25.049z"/><path d="m80.007 127h224c8.284 0 15-6.716 15-15s-6.716-15-15-15h-224c-8.284 0-15 6.716-15 15s6.716 15 15 15z"/><path d="m80.007 207h176c8.284 0 15-6.716 15-15s-6.716-15-15-15h-176c-8.284 0-15 6.716-15 15s6.716 15 15 15z"/><path d="m208.007 257h-128c-8.284 0-15 6.716-15 15s6.716 15 15 15h128c8.284 0 15-6.716 15-15s-6.716-15-15-15z"/></g><text font-family="sans-serif" font-size="10.5833" stroke-width=".264583" x="77.886314" y="207.13649"><tspan fill="#fff" font-family="Cambria" stroke-width=".264583" x="77.886314" y="207.13649">W R I T I N G</tspan></text></svg>